<?xml version="1.0" encoding="utf-8"?>
<!-- Generator: Adobe Illustrator 19.1.0, SVG Export Plug-In . SVG Version: 6.00 Build 0)  -->
<!DOCTYPE svg PUBLIC "-//W3C//DTD SVG 1.1//EN" "http://www.w3.org/Graphics/SVG/1.1/DTD/svg11.dtd">
<svg version="1.1" id="Layer_1" xmlns="http://www.w3.org/2000/svg" xmlns:xlink="http://www.w3.org/1999/xlink" x="0px" y="0px"
	 viewBox="-21.3 344.3 432.7 107" style="enable-background:new -21.3 344.3 432.7 107;" xml:space="preserve">
<style type="text/css">
	.st0{fill:#002C77;}
	.st1{fill:#002C77;stroke:#004784;stroke-width:0.2258;stroke-miterlimit:3.8636;}
	.st2{fill:#FFFFFF;}
	.st3{fill:#A80533;}
	.st4{fill:#004784;}
</style>
<path class="st0" d="M242.5,408v-13.8c-4.5,1.9-16,4.7-16,10.7c0,4,3,7.3,7.1,7.3C237.5,412.2,239.7,410.2,242.5,408L242.5,408z
	 M242.7,391.8v-10.6c0-3.9-2.5-4.9-6.2-4.9c-3.6,0-8.7,2.4-8.7,4.5c0,0.6,0.2,1.3,0.2,2.3c0,3.7-0.9,6.2-5.2,6.2c-1.8,0-3-1.7-3-3.3
	c0-2.1,1.5-4.2,3.6-5.9c4.5-3.7,11.6-6.7,17.5-6.7c6.1,0,9.3,3.6,9.3,9.4v25.9c0,1.6,0,4.6,2.3,4.6c1.6,0,2.5-2,2.8-3.3h1.6
	c-0.5,4.6-2.5,7.4-7.2,7.4c-3.7,0-6.8-3.3-6.9-6.7c-4.7,3.4-7.8,6.7-14,6.7c-4.6,0-8.8-3.6-8.8-8.2
	C219.9,398.5,234.6,395.2,242.7,391.8L242.7,391.8z"/>
<path class="st0" d="M328.9,395.4c0,7.5,2.8,19.8,12.5,19.8c9.4,0,12.7-9.8,12.7-17.4c0-8.2-1.2-22.3-12.6-22.3
	C331.7,375.4,328.9,388.1,328.9,395.4L328.9,395.4z M320.4,395c0-11.7,8.4-21.7,20.7-21.7c13,0,21.3,9.8,21.3,22.1
	c0,12.6-8.1,21.9-21.2,21.9C328,417.2,320.4,407.3,320.4,395L320.4,395z"/>
<path class="st0" d="M79.3,351.5v-2.2h22.6v2.2c-4.2,0.1-5.8,0.1-5.8,2.6c0,0.1,0.1,0.8,0.5,1.7l13.6,46.2l19.1-55h1.6l16.7,54.3
	c0,0,13.2-39.7,13.2-45.3c0-4.4-2.8-4.1-6.4-4.5v-2.2h13.8c6.1,0,12.3-2.1,15.8-4.2v35.1c4.3-3.8,7.9-6.9,14.1-6.9
	c4.6,0,8.8,2,11.1,5.9c2.1,3.4,2.5,6.6,2.5,10.4V409c0,5,1.3,5,5.7,5.3v1.8h-18.9v-1.8c4.1-0.3,5.4-0.3,5.4-5.3v-19.5
	c0-3.1,0-4.5-1.4-7.4c-1.6-2.8-4.4-5.5-8-4.9c-5.5,0.9-7.6,3.4-10.4,6.1V409c0,5,1.3,5,5.5,5.3v1.8h-19.1v-1.8
	c4.5-0.3,5.8-0.3,5.8-5.3v-57c0.1-0.1-1.5,0-3.6,0c-7.6,0.5-7.8,6.3-10.2,13.2l-17.1,52.1h-1.8l-16.9-52.2l-19.5,52.2h-1.7l-18-57.3
	c-1.1-3-1.6-5.5-3.2-7.2C83.3,352,83.2,351.4,79.3,351.5L79.3,351.5z"/>
<path class="st0" d="M382.5,416.2v-1.8c-4.3-0.3-5.6-0.3-5.6-5.3v-22.9c0-4.5,6-8.5,10.2-8.5c6.4,0,9.9,4.1,9.9,10.2V409
	c0,5-1.3,5-5.8,5.3v1.8h19.6v-1.8c-3.4-0.3-6.1-0.3-6.1-5.3v-22.9c0-7.3-7.3-12.8-14.5-12.8c-6.3,0-9.4,2.9-13.5,7v-7
	c-4.3,1.5-8.8,3.8-13.4,4.4v1.5c4.1,0.4,5.6,1.8,5.6,5.4V409c0,5-1.3,5-5.8,5.3v1.8h19.4V416.2z"/>
<path class="st0" d="M278.8,416.2v-1.8c-5.1-0.3-6.3-0.3-6.3-5.3v-25.7c0-1.6,2.6-4,5.4-4c2.6,0,3,3,6.3,3c4,0,4.9-2.1,4.9-5
	c0-3-3.2-4.7-6.9-4.7c-4.3,0-7.6,3.7-9.9,7V373c-4.5,2.1-9.4,4-13.8,4.7v1.5c4.4,0.5,6.2,1.5,6.2,5.3V409c0,5-1.3,5-5.6,5.3v1.8
	h19.7V416.2z"/>
<path class="st0" d="M320.2,375.7l1.4-5.3h-17.1v-8.6h-1c-4,4.7-7.8,8.8-12.4,12.8v1.1h5.4v29.2c0,6.9,3.1,12.7,10.6,12.7
	c6.4,0,11.3-4.7,14-7.8l-1.2-1.6c-2.3,2.6-5.4,4.1-8.2,4.1c-5.7,0-7.2-3.1-7.2-8.4v-28.1L320.2,375.7L320.2,375.7z"/>
<path class="st1" d="M83.6,438.6c0,3.3,0.9,5.8,4.4,5.8c3.2,0,4.9-2.2,4.9-6v-6.6c0-0.5-0.1-0.9-0.1-1.3c-0.1-0.8-0.9-1.2-2-1.3
	v-0.6h5.6v0.6c-1.1,0.1-1.9,0.4-2,1.3c0,0.4-0.1,0.8-0.1,1.3v6.7c0,5.1-3.2,7-6.3,7c-5,0-6.6-2.6-6.6-6.8v-7.1c0-2.2,0.1-2.1-2-2.3
	v-0.6h6.4v0.6c-2.1,0.3-2,0.1-2,2.3v7H83.6z"/>
<path class="st1" d="M109.8,445.3c-2.9-3.4-5.9-7-8.9-10.5v8.1c0,0.4,0.1,0.7,0.1,1c0.1,0.7,0.7,0.9,1.9,1v0.5h-4.5v-0.5
	c0.9-0.1,1.5-0.3,1.6-1c0-0.3,0.1-0.6,0.1-1v-8.6c-0.5-0.7-1.1-1.2-2.1-1.2v-0.5h3.3c2.7,3.3,5.5,6.7,8.3,10l0,0v-7.5
	c0-0.4-0.1-0.7-0.1-1c-0.1-0.7-0.7-0.9-1.9-1v-0.5h4.5v0.5c-0.9,0.1-1.5,0.3-1.6,1c0,0.3-0.1,0.6-0.1,1v10.3h-0.6V445.3z"/>
<path class="st1" d="M118.8,443c0,1.7-0.1,1.6,1.6,1.8v0.5h-4.9v-0.5c1.6-0.2,1.6-0.1,1.6-1.8v-8.2c0-1.7,0.1-1.6-1.6-1.8v-0.5h4.9
	v0.5c-1.6,0.2-1.6,0.1-1.6,1.8V443L118.8,443z"/>
<path class="st1" d="M128.3,433c-1,0-1.7,0.3-1.1,2c0.7,2.2,1.8,5.3,2.7,8.1c1.2-2.8,2.3-5.6,3.4-8.4c0.5-1.2,0-1.7-1.3-1.7v-0.5
	h3.9v0.5c-0.5,0-1.1,0.2-1.5,1.1c-1.5,3.7-3.1,7.5-4.6,11.2h-0.9c-1.1-3.2-2.4-6.7-3.5-9.8c-0.7-2-1.2-2.5-2.1-2.5v-0.5h5L128.3,433
	L128.3,433z"/>
<path class="st1" d="M138.8,444.8c1.6-0.2,1.6-0.1,1.6-1.8v-8.2c0-1.7,0.1-1.6-1.6-1.8v-0.5h8.2v2.9h-0.5c-0.2-1.4-0.6-2.4-1.9-2.4
	h-2.5v5.2h1.5c1.2,0,1.6-0.5,1.7-1.6h0.5v3.9h-0.5c0-1.1-0.5-1.7-1.7-1.7h-1.5v4.1c0,1.6,0.7,1.7,2.4,1.7c2.7,0,2.5-0.8,3.4-2.7h0.5
	l-0.5,3.3h-9L138.8,444.8L138.8,444.8z"/>
<path class="st1" d="M151.5,432.5h5.3c1.8,0,3.7,1,3.7,3.1c0,1.9-1.1,3.2-2.6,3.7l1.8,2.7c0.9,1.3,1.9,2.6,2.6,3v0.2h-1.9
	c-1.1,0-1.7-2-3.9-5.7h-1.7v3.4c0,1.7-0.1,1.6,1.6,1.8v0.5h-4.9v-0.5c1.6-0.2,1.6-0.1,1.6-1.8v-8.2c0-1.7,0.1-1.6-1.6-1.8
	L151.5,432.5L151.5,432.5z M154.8,439h1.5c1.6,0,2.3-1.2,2.3-3.3c0-2-1.1-2.7-2.4-2.7h-1.4L154.8,439L154.8,439z"/>
<path class="st1" d="M171.5,435.2c-0.1-1.3-0.8-2.3-2.3-2.3c-1.1,0-2,0.5-2,1.9c0,1.3,1.3,2,3.1,3.4c1.9,1.4,2.6,2.4,2.6,3.9
	c0,2.2-2.2,3.4-4.4,3.4c-1.2,0-2.2-0.2-3.1-0.6c-0.1,0-0.1-0.1-0.1-0.3V442h0.5c0.2,2,1.5,2.8,2.9,2.8c1.3,0,2.3-1,2.3-2.3
	c0-1.2-0.6-2.2-3.4-4c-1-0.7-2.2-1.4-2.2-3.4c0-1.6,1.8-2.9,3.9-2.9c0.8,0,1.8,0.1,2.6,0.3c0.1,0,0.1,0.1,0.1,0.2v2.4h-0.5V435.2z"
	/>
<path class="st1" d="M180,443c0,1.7-0.1,1.6,1.6,1.8v0.5h-4.9v-0.5c1.6-0.2,1.6-0.1,1.6-1.8v-8.2c0-1.7,0.1-1.6-1.6-1.8v-0.5h4.9
	v0.5c-1.6,0.2-1.6,0.1-1.6,1.8V443L180,443z"/>
<path class="st1" d="M190.9,443c0,1.7-0.1,1.6,1.6,1.8v0.5h-4.9v-0.5c1.6-0.2,1.6-0.1,1.6-1.8v-9.9h-1.6c-1.6,0-2,1-2.6,2.2h-0.5
	l0.5-2.8h10.1l0.5,2.8h-0.5c-0.6-1.2-1-2.2-2.6-2.2h-1.6V443L190.9,443z"/>
<path class="st1" d="M200.9,444.8c1.7-0.2,1.6-0.1,1.6-1.8v-2.8l-2.8-5.6c-0.6-1.2-1.1-1.6-2-1.6v-0.5h4.7v0.5
	c-1.4,0-1.3,0.7-0.8,1.6l2.2,4.6l2.5-4.6c0.6-1.1,0-1.6-1-1.6v-0.5h3.8v0.5c-0.5,0-1,0.2-1.5,1.1l-3.1,5.5c-0.2,0.4-0.2,0.9-0.2,1.3
	v2c0,1.7-0.1,1.6,1.6,1.8v0.5H201v-0.4H200.9z"/>
<path class="st0" d="M218.3,440.9c0-3.1,2.7-7.7,6.6-7.7c3.1,0,3.8,2.1,3.8,4.3c0,2.6-2.1,8.1-6.6,8.1
	C219.1,445.5,218.3,443.1,218.3,440.9L218.3,440.9z M226.6,436.3c0-2.5-1.5-2.6-1.9-2.6c-2.6,0-4.2,4.6-4.2,7.7c0,1.2,0.2,3.5,2,3.5
	C225.1,444.8,226.6,440.4,226.6,436.3L226.6,436.3z"/>
<path class="st0" d="M239.8,433.9l-0.6,0.5h-3.1c-1.2,5.6-3,13.1-4.4,16.7h-1.1l3.4-16.7h-2.2l0.2-1h2.2c1.2-5,5.4-5.6,6.4-5.6
	c0.5,0,1.7,0.1,2,0.4l-0.3,1.6l-0.6,0.3c-0.3-0.6-1.1-1.4-2.1-1.4c-1.4,0-2.5,1-3.1,3.5l-0.3,1.1h3.5L239.8,433.9L239.8,433.9z"/>
<path class="st1" d="M254,442.3c0,2.2-0.1,2.1,2,2.3v0.6h-6.4v-0.6c2.1-0.3,2-0.1,2-2.3v-10.7c0-2.2,0.1-2.1-2-2.3v-0.6h6.2
	c3.9,0,5.9,1.6,5.9,4.4c0,3.4-3.1,5.3-6.7,5v-0.5c3,0,4.3-1.7,4.3-4.3s-1.3-3.9-3.9-3.9H254V442.3L254,442.3z"/>
<path class="st1" d="M265,444.8c1.6-0.2,1.6-0.1,1.6-1.8v-8.2c0-1.7,0.1-1.6-1.6-1.8v-0.5h8.2v2.9h-0.5c-0.2-1.4-0.5-2.4-1.9-2.4
	h-2.5v5.2h1.5c1.1,0,1.6-0.5,1.7-1.6h0.5v3.9h-0.5c0-1.1-0.5-1.7-1.7-1.7h-1.5v4.1c0,1.6,0.7,1.7,2.4,1.7c2.6,0,2.5-0.8,3.4-2.7h0.5
	l-0.6,3.3h-9V444.8L265,444.8z"/>
<path class="st1" d="M288.7,445.3c-2.9-3.4-5.9-7-8.9-10.5v8.1c0,0.4,0.1,0.7,0.1,1c0.1,0.7,0.7,0.9,1.9,1v0.5h-4.5v-0.5
	c0.9-0.1,1.5-0.3,1.6-1c0-0.3,0.1-0.6,0.1-1v-8.6c-0.5-0.7-1.1-1.2-2.1-1.2v-0.5h3.3c2.7,3.3,5.6,6.7,8.3,10l0,0v-7.5
	c0-0.4-0.1-0.7-0.1-1c-0.1-0.7-0.7-0.9-1.9-1v-0.5h4.5v0.5c-0.9,0.1-1.5,0.3-1.6,1c0,0.3-0.1,0.6-0.1,1v10.3h-0.6V445.3z"/>
<path class="st1" d="M305.4,445.3c-2.9-3.4-5.9-7-8.9-10.5v8.1c0,0.4,0.1,0.7,0.1,1c0.1,0.7,0.7,0.9,1.9,1v0.5H294v-0.5
	c0.9-0.1,1.5-0.3,1.6-1c0-0.3,0.1-0.6,0.1-1v-8.6c-0.5-0.7-1.1-1.2-2.1-1.2v-0.5h3.3c2.7,3.3,5.6,6.7,8.3,10l0,0v-7.5
	c0-0.4-0.1-0.7-0.1-1c-0.1-0.7-0.7-0.9-1.9-1v-0.5h4.5v0.5c-0.9,0.1-1.5,0.3-1.6,1c0,0.3-0.1,0.6-0.1,1v10.3h-0.6V445.3z"/>
<path class="st1" d="M317.3,435.2c-0.1-1.3-0.8-2.3-2.3-2.3c-1.1,0-2,0.5-2,1.9c0,1.3,1.3,2,3.1,3.4c1.9,1.4,2.6,2.4,2.6,3.9
	c0,2.2-2.2,3.4-4.4,3.4c-1.2,0-2.2-0.2-3.1-0.6c-0.1,0-0.1-0.1-0.1-0.3V442h0.5c0.2,2,1.5,2.8,2.9,2.8c1.3,0,2.4-1,2.4-2.3
	c0-1.2-0.6-2.2-3.4-4c-1-0.7-2.2-1.4-2.2-3.4c0-1.6,1.8-2.9,3.9-2.9c0.8,0,1.8,0.1,2.6,0.3c0.1,0,0.1,0.1,0.1,0.2v2.4h-0.6V435.2z"
	/>
<path class="st1" d="M324.6,444.8c1.6-0.2,1.6-0.1,1.6-1.8v-2.8l-2.8-5.6c-0.6-1.2-1.1-1.6-1.9-1.6v-0.5h4.7v0.5
	c-1.4,0-1.3,0.7-0.8,1.6l2.2,4.6l2.5-4.6c0.6-1.1,0-1.6-1-1.6v-0.5h3.8v0.5c-0.5,0-1,0.2-1.5,1.1l-3,5.5c-0.2,0.4-0.2,0.9-0.2,1.3v2
	c0,1.7-0.1,1.6,1.6,1.8v0.5h-4.9v-0.4H324.6z"/>
<path class="st1" d="M335.9,444.8c1.6-0.2,1.6-0.1,1.6-1.8v-8.2c0-1.7,0.1-1.6-1.6-1.8v-0.5h4.9v0.5c-1.6,0.2-1.6,0.1-1.6,1.8v8.5
	c0,1.3,0.7,1.4,2.3,1.4c2.6,0,2.5-0.8,3.4-2.7h0.5l-0.5,3.3h-9L335.9,444.8L335.9,444.8z"/>
<path class="st1" d="M350.7,433c-1,0-1.7,0.3-1.1,2c0.7,2.2,1.8,5.3,2.7,8.1c1.2-2.8,2.3-5.6,3.4-8.4c0.5-1.2,0-1.7-1.3-1.7v-0.5
	h3.9v0.5c-0.5,0-1.1,0.2-1.5,1.1c-1.5,3.7-3.1,7.5-4.6,11.2h-0.9c-1.1-3.2-2.4-6.7-3.5-9.8c-0.7-2-1.2-2.5-2.1-2.5v-0.5h5V433
	L350.7,433z"/>
<path class="st1" d="M361.8,441l-0.8,2.4c-0.2,0.7,0.1,1.3,0.9,1.3v0.5h-3.3v-0.5c0.5,0,1-0.3,1.3-0.9c0.8-1.6,2.9-7.6,4.4-11.6h1
	c1.2,3.7,3.1,9.3,3.7,10.9c0.4,1,0.7,1.6,1.5,1.6v0.5h-4.3v-0.5c1.2,0,1.3-0.6,1-1.4l-0.8-2.4L361.8,441L361.8,441z M366.2,440.3
	l-1.9-5.9l0,0l-2.2,5.9H366.2L366.2,440.3z"/>
<path class="st1" d="M384.3,445.3c-2.9-3.4-5.9-7-8.9-10.5v8.1c0,0.4,0.1,0.7,0.1,1c0.1,0.7,0.7,0.9,1.9,1v0.5h-4.5v-0.5
	c0.9-0.1,1.5-0.3,1.6-1c0-0.3,0.1-0.6,0.1-1v-8.6c-0.5-0.7-1.1-1.2-2.1-1.2v-0.5h3.3c2.7,3.3,5.5,6.7,8.3,10l0,0v-7.5
	c0-0.4-0.1-0.7-0.1-1c-0.1-0.7-0.7-0.9-1.9-1v-0.5h4.5v0.5c-0.9,0.1-1.5,0.3-1.6,1c0,0.3-0.1,0.6-0.1,1v10.3h-0.6V445.3z"/>
<path class="st1" d="M392.9,443c0,1.7-0.1,1.6,1.6,1.8v0.5h-4.9v-0.5c1.6-0.2,1.6-0.1,1.6-1.8v-8.2c0-1.7,0.1-1.6-1.6-1.8v-0.5h4.9
	v0.5c-1.6,0.2-1.6,0.1-1.6,1.8V443L392.9,443z"/>
<path class="st1" d="M400.5,441l-0.8,2.4c-0.2,0.7,0.1,1.3,0.9,1.3v0.5h-3.3v-0.5c0.5,0,1-0.3,1.3-0.9c0.8-1.6,2.9-7.6,4.4-11.6h1
	c1.2,3.7,3.1,9.3,3.7,10.9c0.4,1,0.7,1.6,1.5,1.6v0.5H405v-0.5c1.2,0,1.3-0.6,1-1.4l-0.8-2.4L400.5,441L400.5,441z M404.9,440.3
	l-1.9-5.9l0,0l-2.2,5.9H404.9L404.9,440.3z"/>
<g>
	<path class="st2" d="M-19.9,350.4h88.8v44.3c0,0,1.1,17.4-12.2,32.6c-16.5,18.8-32,22.9-32,22.9S11,446.5-5.4,429.9
		c-15.8-16-14.5-34.6-14.5-34.6S-19.9,350.4-19.9,350.4z"/>
	<path class="st3" d="M-18.6,377.9c0-1.9,0-24.5,0-26.4c2.1,0,84.4,0,86.5,0c0,1.9,0,26.4,0,26.4H-18.6z M21.7,369.8
		c0.6,0.2,2.6,1.2,4.2,2.1c1.2,0.6,2.2,1.1,2.6,1.3c0.1,0,0.3,0.1,0.5,0.2c1.3,0.7,4.3,2.3,8.6,1.5c0.1,0,3.4-0.5,5.2-3.1
		c1.1-1.6,1.7-3.7,0.9-6.1c-2.1-6.7,0.4-9.6,0.4-9.6s-2.3-0.9-4.5,0.5c-1.3,0.8-1.9,2.3-2,4.6c-0.8,0.2-2.1,0.5-2.8,1.7
		c-0.7,1.1-0.6,2.5,0.1,4.2l0.4,0.9l0.6-0.8c0.5-0.8,2.1-1.2,2.8-0.8c0.8,0.5,0.8,1.4,0.7,2c-0.1,0.5-0.2,1-0.5,1.3
		c-0.6,0.5-1.7,0.7-3,0.5c-0.7-0.1-1.6-0.4-2.4-1.1c-0.4-0.4-0.4-0.8-0.9-1.2c-0.4-0.3-0.1-1,0-1.3c0.2-0.6,0.4-1.4,0-2.2
		c-0.6-1-1.2-1.2-1.7-1.3c-0.3-0.1-0.4-0.1-0.6-0.3c-0.2-0.2-0.2-0.6-0.1-1.1c0.1-0.7,0.2-1.6-0.4-2.3c-0.9-1-1.7-0.9-2.4-0.9
		c-0.4,0-0.8,0-1.3-0.2c-0.2-0.1-0.2-0.2-0.3-0.6c-0.2-0.6-0.4-1.6-2-2.2c-1-0.4-1.7,0-2.2,0.2c-0.3,0.2-0.6,0.3-0.9,0.3
		c-0.2,0-0.2,0-0.5-0.4c-0.4-0.5-0.9-1.2-2.4-1c-0.8,0.1-1.4,0.8-1.7,1.3c-0.1,0.1-0.2,0.3-0.3,0.3c-0.1,0-0.1,0-0.2-0.1
		c-0.6-0.4-1.6-1-2.8-0.3c-0.7,0.4-1.4,1.4-1.4,1.4c-0.2,0.4-0.4,0.6-0.6,0.7l-0.4-0.7c-1.6,0.8-4.7,8-4.7,9.5
		c0,0.9,0.5,1.3,0.8,1.5c0.3,0.2,0.4,0.3,0.4,0.7c0,0.2-0.3,0.5-0.5,0.8c-0.3,0.4-1.4,1.9-0.1,3.2l0.8,0.2c0.3,1.2,1.2,1.6,2.5,1.6
		c2.1,0,4.1-1.4,5.4-2.4l0.2-0.1c0.8-0.6,1.7-1.1,2-2.4c0.3-0.2,1-0.5,2.2-0.5C19.7,369.3,20.6,369.5,21.7,369.8"/>
	<path class="st0" d="M29,373.5c-0.2-0.1-0.4-0.2-0.5-0.2c-0.4-0.2-1.4-0.7-2.6-1.3c-1.6-0.8-3.6-1.9-4.2-2.1
		c-2.9-0.9-4.4-0.3-4.8,0.1c-0.2,1.3-1.1,1.8-2,2.4l-0.2,0.1c-1.3,0.9-3.3,2.4-5.4,2.4c-1.3,0-2.2-0.4-2.5-1.6L6,373
		c-1.3-1.3-0.2-2.8,0.1-3.2c0.2-0.3,0.5-0.6,0.5-0.8c0-0.5-0.1-0.5-0.4-0.7c-0.3-0.2-0.8-0.6-0.8-1.5c0-1.5,3.1-8.7,4.7-9.5l0.4,0.7
		c0.3-0.1,0.4-0.3,0.6-0.7c0,0,0.6-1.1,1.4-1.4c1.2-0.6,2.2,0,2.8,0.3c0.1,0.1,0.1,0.2,0.2,0.1s0.2-0.2,0.3-0.3
		c0.4-0.5,0.9-1.2,1.7-1.3c1.5-0.1,2.1,0.6,2.4,1c0.3,0.3,0.3,0.4,0.5,0.4c0.4,0,0.6-0.2,0.9-0.3c0.5-0.3,1.1-0.6,2.2-0.2
		c1.7,0.6,1.9,1.5,2,2.2c0.1,0.4,0.1,0.5,0.3,0.6c0.5,0.2,0.8,0.2,1.3,0.2c0.7,0,1.5-0.1,2.4,0.9c0.7,0.7,0.5,1.6,0.4,2.3
		c-0.1,0.6-0.1,0.9,0.1,1.1c0.2,0.2,0.4,0.2,0.6,0.3c0.5,0.1,1.1,0.3,1.7,1.3c0.4,0.8,0.2,1.6,0,2.2c-0.1,0.4-0.4,1.1,0,1.3
		c0.6,0.4,0.5,0.9,0.9,1.2c0.8,0.7,1.8,1,2.4,1.1c1.3,0.2,2.4,0,3-0.5c0.3-0.3,0.4-0.8,0.5-1.3s0.1-1.5-0.7-2
		c-0.7-0.4-2.2,0.1-2.8,0.8l-0.6,0.8l-0.4-0.9c-0.7-1.7-0.7-3.1-0.1-4.2c0.7-1.2,2-1.6,2.8-1.7c0-2.3,0.7-3.8,2-4.6
		c2.2-1.4,4.5-0.5,4.5-0.5s-2.5,2.8-0.4,9.6c0.7,2.4,0.2,4.5-0.9,6.1c-1.8,2.6-5.1,3.1-5.2,3.1c-0.8,0.1-1.5,0.2-2.2,0.2
		C32.2,375.2,30,374,29,373.5 M9.6,373.8c1.8-0.3,3.3-1.4,4.5-2.3l0.2-0.1c0.5-0.4,1.1-0.7,1.4-1.2c0.1-0.2,0.1-0.6,0-0.6
		c-0.2-0.1-0.4-0.2-0.8-0.2c-0.2,0-0.6-0.2-0.6-0.6c-0.1-0.4,0.4-0.7,0.7-0.9c1.2-0.5,2-1,2.2-1.2l0,0l0,0v-0.1c0,0,0,0,0,0.1
		c-0.5-0.5-0.9-1-1.1-1.4c-0.2-0.2-0.3-0.4-0.4-0.6c-0.5-0.5-1-0.8-1.8-0.8c-0.5,0-1.1,0.8-1.7,1c-0.8,0.3-1-0.5-0.8-1
		s0.7-0.5,0.7-1.1c0-1-0.5-2.1-1.1-3.1c-0.2-0.6-0.8-0.6-0.8-0.6c-1.1,0.5-3.6,6.1-3.6,7.5c0,0.4,0.1,0.4,0.3,0.6
		c0.3,0.2,0.8,0.6,0.8,1.6c0,0.6-0.4,1.1-0.8,1.5c-0.2,0.2-0.5,0.5-0.5,0.7c0,0.6,0,1,1.4,1c0.8,0,1.5-0.2,2-0.4
		c0.8-0.4,1.7-1.2,2-1.8c0.4-0.5,1.1-0.1,1,0.4c-0.4,1-1.8,1.6-2.6,2.2c-1,0.7-2.3,0.5-2.3,0.5C7.7,373.3,8.6,374,9.6,373.8"/>
	<path class="st2" d="M31.3,367.1c-1.3-1.6-2.5-3.3-3-4c-0.2-0.2-0.2-0.3-0.3-0.4l-0.1-0.2c-0.8-1-3.1-4-9-4.4
		c-0.6,0-5.2,0.1-6.8,1.6c-0.1-0.1-0.1-0.2-0.2-0.4l-0.3-0.8c0.3-0.3,0.4-0.6,0.6-0.8c0.2-0.4,0.4-0.8,0.9-1
		c0.7-0.3,1.1-0.1,1.7,0.3c0.2,0.1,0.4,0.2,0.5,0.3c0.6,0.2,1-0.3,1.4-0.8c0.3-0.4,0.6-0.8,1-0.8c0.9-0.1,1.2,0.2,1.5,0.6
		c0.3,0.3,0.7,0.8,1.5,0.8c0.6,0,1-0.3,1.3-0.4c0.4-0.2,0.7-0.4,1.3-0.2c1.1,0.4,1.2,0.8,1.3,1.4c0.1,0.4,0.2,1,0.9,1.3
		c0.7,0.4,1.4,0.4,1.9,0.3c0.6,0,1-0.1,1.5,0.5c0.3,0.3,0.3,0.8,0.2,1.4c-0.1,0.6-0.2,1.4,0.4,2.1c0.4,0.4,0.8,0.5,1.1,0.6
		c0.4,0.1,0.7,0.2,1,0.8c0.2,0.4,0.1,0.8-0.1,1.3C31.4,366.5,31.3,366.8,31.3,367.1L31.3,367.1z"/>
	<path class="st2" d="M16.5,364.2c0.3-0.3,0.7-0.5,1.2-0.7c0.2-0.1,0.5,0,0.8,0.2c0.4,0.3,0.7,0.7,0.8,1.2l0.2,0.9l0.7-0.5
		c0.2-0.2,1-0.6,1.5-0.4c0.4,0.1,0.7,0.6,0.9,1.3l0.2,0.8l0.7-0.5c0.4-0.3,0.8-0.5,1-0.4c0.3,0.1,0.5,0.6,0.7,1
		c0.1,0.2,0.2,0.4,0.3,0.5c0.3,0.6,0.9,0.6,1.3,0.6s0.6,0,0.7,0.7c0.1,0.4,1.3,0.5,1.1-0.2c-0.4-1.5-1.3-1.6-1.8-1.6
		c-0.3,0-0.3,0-0.4-0.1c-0.1-0.1-0.1-0.3-0.2-0.4c-0.3-0.6-0.7-1.4-1.5-1.6c-0.4-0.1-0.8,0-1.3,0.2c-0.3-0.7-0.8-1.2-1.3-1.4
		c-0.7-0.2-1.4,0-1.9,0.2c-0.2-0.5-0.6-1-1.1-1.3c-0.6-0.3-1.2-0.5-1.7-0.3c-0.7,0.2-1.2,0.5-1.6,0.9c-0.4-0.4-2.6-0.4-2.6-0.4
		c0-0.8-0.2-1.5-0.5-2.2c0.1-0.8,4.4-1.6,6.3-1.5c5.4,0.3,7.4,2.9,8.2,3.9l0.1,0.2c0,0,0.1,0.2,0.2,0.3c0.6,0.9,2,2.9,3.6,4.6
		c0.4,0.5,1.3,1.4,1.7,1.7c1,0.8,2,1.2,3,1.3c1.7,0.3,3.1,0,4-0.8c0.6-0.5,0.7-1.3,0.8-2.1c0.1-1.1,0-2.9-1.8-3.1
		c-1.1-0.1-2.2,0.2-2.9,0.9c-0.3-1-0.2-2,0.1-2.7c0.6-1.1,2-1.3,2.4-1.3l0.5-0.1v-0.5c0-1.9,0.4-3.3,1.3-4c0.7-0.5,1.6-0.9,2.4-0.9
		c-0.4,1.5-1.3,4.2,0.2,9.1c0.6,2.1,0.2,3.9-0.7,5.2c-1.5,2.2-4.5,2.7-4.5,2.7h0.1h-0.1h-0.1c-3.9,0.7-6.6-0.7-7.9-1.4
		c-0.2-0.1-0.4-0.2-0.6-0.3c-0.4-0.2-1.4-0.7-2.5-1.3c-2.2-1.1-3.7-2-4.4-2.2c-3.1-1-4.8-0.4-5.6,0.1l-0.4-0.1
		c1.7-0.7,2.1-1.2,2.2-1.9c0.1-0.3,0-0.7-0.3-0.9c-0.4-0.4-0.8-0.9-1.1-1.3C16.8,364.5,16.6,364.3,16.5,364.2"/>
	<path class="st2" d="M8,373c0,0,1.3,0.2,2.3-0.5c0.8-0.6,2.2-1.2,2.6-2.2c0.1-0.5-0.6-0.9-1-0.4c-0.3,0.6-1.2,1.4-2,1.8
		c-0.5,0.2-1.2,0.4-2,0.4c-1.4,0-1.4-0.4-1.4-1c0-0.2,0.3-0.4,0.5-0.7c0.4-0.4,0.8-0.9,0.8-1.5c0-1-0.5-1.4-0.8-1.6
		c-0.3-0.2-0.3-0.2-0.3-0.6c0-1.4,2.5-7,3.6-7.5c0,0,0.6,0.1,0.8,0.6c0.5,1,1.1,2,1.1,3.1c0,0.6-0.5,0.6-0.7,1.1
		c-0.2,0.4,0,1.2,0.8,1c0.6-0.2,1.2-1,1.7-1c0.8,0,1.3,0.2,1.8,0.8c0.1,0.1,0.3,0.3,0.4,0.6c0.3,0.4,0.7,0.9,1.1,1.4
		c-0.2,0.2-1,0.8-2.2,1.2c-0.3,0.2-0.8,0.4-0.7,0.9c0,0.3,0.4,0.5,0.6,0.6c0.3,0,0.6,0.1,0.8,0.2c0.1,0,0.1,0.5,0,0.6
		c-0.3,0.5-0.8,0.9-1.4,1.2l-0.2,0.1c-1.2,0.9-2.7,2-4.5,2.3c-0.1,0-0.2,0-0.3,0C8.5,373.8,7.8,373.3,8,373 M17.2,366.7L17.2,366.7
		C17.2,366.7,17.2,366.6,17.2,366.7L17.2,366.7L17.2,366.7"/>
	<path class="st4" d="M9.7,368.7c-0.1-0.1-0.1-0.6,0-0.8c0.1-0.5,0.4-0.9,0.7-1.1c0,0,1.2-0.8,1.4-0.7c0.1,0-0.3,0.8-0.3,0.9
		c0.1,0.7-0.2,1.1-0.2,1.1s-0.3,0.7-0.7,0.9c-0.1,0-0.2,0.1-0.3,0.1C10,369.1,9.8,369,9.7,368.7 M11.7,366.2L11.7,366.2L11.7,366.2
		L11.7,366.2 M11.7,366.1L11.7,366.1 M11.7,366.1L11.7,366.1"/>
	<path class="st0" d="M-21,349.1v45.6c0,37.2,40.5,56.1,45.6,56.2c5.2-0.2,45.7-19,45.7-56.2v-45.6H-21z M-4.4,414.2
		c0-4.6,3.9-8.3,8.8-8.3c4.8,0,8.8,3.7,8.8,8.3s-3.9,8.3-8.8,8.3S-4.4,418.8-4.4,414.2z M0.4,434l24.3-25.1L49,434
		c-10.5,9.6-21.9,14.6-24.3,14.7C22.2,448.6,10.8,443.6,0.4,434z M15.6,396.5c0-4.7,4-8.5,8.9-8.5s9,3.8,9,8.5c0,4.7-4,8.5-9,8.5
		C19.6,404.9,15.6,401.1,15.6,396.5z M44.7,422.5c-4.8,0-8.8-3.7-8.8-8.3s3.9-8.3,8.8-8.3s8.8,3.7,8.8,8.3S49.5,422.5,44.7,422.5z
		 M67.9,394.8c0,8-2,15.1-5.2,21.4l-38-36.2l-38.1,36.2c-3.2-6.3-5.2-13.4-5.2-21.4V380h86.5L67.9,394.8z M67.9,377.9h-86.5v-26.4
		h86.5V377.9z"/>
	<g>
		<path class="st2" d="M-6.4,356.7c0.9,0,1.5-0.8,2.8-0.8c1.7,0,2.3,1,4,1.4h2.3c0,0,0,0.9,0,1.5c0,0.6,1.2,0.5,1.2,1.8
			c0,1.4-1.1,1.3-1.1,1.8v3.6c0,0.5,1.2,0.5,1.2,1.7c0,1-1.2,1.1-1.2,1.8v2h-18.1v-2c0-0.7-1.2-0.8-1.2-1.8c0-1.2,1.2-1.3,1.2-1.7
			v-3.6c0-0.6-1.1-0.5-1.1-1.8c0-1.3,1.2-1.2,1.2-1.8s0-1.2,0-1.5l0,0h2.3c1.7-0.4,2.3-1.4,4.1-1.4C-7.8,355.9-7.3,356.7-6.4,356.7
			L-6.4,356.7z"/>
		<path class="st0" d="M-7,355.8h1.2c1-0.6,2-0.8,2.9-0.7s2,1.1,3.2,1.3c0.3,0,1.1,0,1.1,0v12.5h-6.5c0,0.8-1,0.9-1.2,0.9
			s-1.2-0.1-1.2-0.9H-14v-12.5c0,0,0.8,0,1.1,0c1.2-0.2,2.3-1.2,3.2-1.3C-8.9,355-8,355.2-7,355.8L-7,355.8z"/>
		<path class="st2" d="M-13,367.8v-10.5c1.2-0.2,2.3-1.2,3.2-1.3c0.9-0.1,1.9,0.1,2.9,0.7v10.1c-0.8,0-2,0.6-2.6,0.9
			C-10.2,367.9-13,367.8-13,367.8L-13,367.8z"/>
		<path class="st2" d="M0.2,367.8c0,0-2.8,0.1-3.4-0.2c-0.6-0.3-1.9-0.9-2.6-0.9v-10.1c1-0.6,2-0.8,2.9-0.7s2,1.1,3.2,1.3v10.6H0.2z
			"/>
	</g>
	<g>
		<path class="st2" d="M55.3,356.7c0.9,0,1.5-0.8,2.8-0.8c1.7,0,2.3,1,4.1,1.4h2.3c0,0,0,0.9,0,1.5c0,0.6,1.2,0.5,1.2,1.8
			c0,1.4-1.1,1.3-1.1,1.8v3.6c0,0.5,1.2,0.5,1.2,1.7c0,1-1.2,1.1-1.2,1.8v2H46.5v-2c0-0.7-1.2-0.8-1.2-1.8c0-1.2,1.2-1.3,1.2-1.7
			v-3.6c0-0.6-1.1-0.5-1.1-1.8c0-1.3,1.2-1.2,1.2-1.8s0-1.2,0-1.5l0,0h2.3c1.7-0.4,2.3-1.4,4-1.4C53.9,355.9,54.5,356.7,55.3,356.7
			L55.3,356.7z"/>
		<path class="st0" d="M54.8,355.8H56c1-0.6,2-0.8,2.9-0.7s2,1.1,3.2,1.3c0.3,0,1.1,0,1.1,0v12.5h-6.5c0,0.8-1,0.9-1.2,0.9
			s-1.2-0.1-1.2-0.9h-6.5v-12.5c0,0,0.8,0,1.1,0c1.2-0.2,2.3-1.2,3.2-1.3C52.8,355,53.8,355.2,54.8,355.8L54.8,355.8z"/>
		<path class="st2" d="M48.7,367.8v-10.5c1.2-0.2,2.3-1.2,3.2-1.3c0.9-0.1,1.9,0.1,2.9,0.7v10.1c-0.8,0-2,0.6-2.6,0.9
			C51.5,367.9,48.7,367.8,48.7,367.8L48.7,367.8z"/>
		<path class="st2" d="M61.9,367.8c0,0-2.8,0.1-3.4-0.2c-0.6-0.3-1.9-0.9-2.6-0.9v-10.1c1-0.6,2-0.8,2.9-0.7s2,1.1,3.2,1.3
			L61.9,367.8L61.9,367.8z"/>
	</g>
</g>
</svg>
